<?xml version="1.0" encoding="UTF-8" standalone="no"?>
<svg
   xmlns:dc="http://purl.org/dc/elements/1.1/"
   xmlns:cc="http://creativecommons.org/ns#"
   xmlns:rdf="http://www.w3.org/1999/02/22-rdf-syntax-ns#"
   xmlns:svg="http://www.w3.org/2000/svg"
   xmlns="http://www.w3.org/2000/svg"
   xmlns:sodipodi="http://sodipodi.sourceforge.net/DTD/sodipodi-0.dtd"
   xmlns:inkscape="http://www.inkscape.org/namespaces/inkscape"
   sodipodi:docname="icon gold thin.svg"
   width="1000"
   height="866.01562"
   viewBox="0 0 264.58331 229.13329"
   version="1.1"
   id="svg8"
   inkscape:version="1.0 (4035a4fb49, 2020-05-01)">
  <defs
     id="defs2" />
  <sodipodi:namedview
     inkscape:object-paths="true"
     inkscape:snap-object-midpoints="true"
     inkscape:snap-center="true"
     inkscape:window-maximized="1"
     inkscape:window-y="-8"
     inkscape:window-x="-8"
     inkscape:window-height="1002"
     inkscape:window-width="1920"
     units="px"
     id="base"
     pagecolor="#ffffff"
     bordercolor="#666666"
     borderopacity="1.0"
     inkscape:pageopacity="0.0"
     inkscape:pageshadow="2"
     inkscape:zoom="0.49497475"
     inkscape:cx="593.33729"
     inkscape:cy="544.81911"
     inkscape:document-units="px"
     inkscape:current-layer="layer1"
     inkscape:document-rotation="0"
     showgrid="false"
     showborder="false"
     inkscape:showpageshadow="false" />
  <metadata
     id="metadata5">
    <rdf:RDF>
      <cc:Work
         rdf:about="">
        <dc:format>image/svg+xml</dc:format>
        <dc:type
           rdf:resource="http://purl.org/dc/dcmitype/StillImage" />
        <dc:title></dc:title>
      </cc:Work>
    </rdf:RDF>
  </metadata>
  <g
     transform="translate(-20.381009,-121.10557)"
     inkscape:label="Layer 1"
     inkscape:groupmode="layer"
     id="layer1">
    <path
       d="m 28.830106,121.10557 123.842564,71.50726 -24.41711,-35.76009 h 86.33839 l 61.92128,-35.74717 h -75.00834 l -15.47709,8.94002 h -66.71427 l -15.47708,-8.94002 z m 24.701333,6.64042 h 48.537081 l 15.47709,8.9271 h 70.26703 l 15.47709,-8.9271 h 48.53708 l -39.0157,22.50509 h -97.07417 l 15.14119,22.11751 z m -33.15043,7.98401 37.504169,64.95727 15.47709,8.94002 33.357132,57.77425 v 17.88004 l 37.50417,64.95728 v -143.0016 l -18.74562,39.0157 -43.17566,-74.77579 z m 264.583321,0 -123.84256,71.50726 43.16273,-3.26853 -43.16273,74.76287 v 71.50726 l 37.50416,-64.95728 v -17.88004 l 33.35714,-57.77425 15.47709,-8.94002 z m -246.522409,18.08675 39.015704,22.50508 48.537085,84.09047 11.61428,-24.11997 v 89.25811 L 113.34691,283.51167 V 265.63162 L 78.194014,204.79555 62.716923,195.85552 Z m 228.422739,0 -24.27501,42.03877 -15.47709,8.94003 -35.10121,60.83607 v 17.88005 l -24.275,42.03877 v -45.02309 l 48.53708,-84.07755 -26.75547,2.00246 z"
       inkscape:transform-center-y="33.315816"
       inkscape:transform-center-x="0.00024073565"
       style="fill:#a57c00;fill-opacity:1;stroke:none;stroke-width:0.44097px;stroke-linecap:butt;stroke-linejoin:miter;stroke-opacity:1"
       id="path1495" />
  </g>
</svg>
